# xmcd
#
# Track frame offsets:
#	150
#	17922
#	31562
#	46680
#	61082
#	72955
#	89815
#	108462
#	124762
#	140400
#	153150
#	170675
#	190445
#	201897
#	218007
#	237210
#	256470
#
# Disc length: 3639 seconds
#
# Revision: 1
# Processed by: cddbd v1.4PL0 Copyright (c) Steve Scherf et al.
# Submitted via: EasyCDDAExtractor 5.0.7
#
DISCID=ec0e3511
DTITLE=Various Artist - Yesteryears hits songs
DYEAR=1900
DGENRE=
TTITLE0=Yesterday
TTITLE1=Imagine
TTITLE2=S.O.S.
TTITLE3=The young one
TTITLE4=Have you ever seen the rain
TTITLE5=Stoney
TTITLE6=I miss you
TTITLE7=You needed me
TTITLE8=If you don't know me by now
TTITLE9=When a man love a woman
TTITLE10=What's a woman
TTITLE11=Right here waiting
TTITLE12=Help me make it through
TTITLE13=Without you
TTITLE14=Sailing
TTITLE15=The one that you love
TTITLE16=More than I can say
EXTD=
EXTT0=
EXTT1=
EXTT2=
EXTT3=
EXTT4=
EXTT5=
EXTT6=
EXTT7=
EXTT8=
EXTT9=
EXTT10=
EXTT11=
EXTT12=
EXTT13=
EXTT14=
EXTT15=
EXTT16=
PLAYORDER=
